<svg width="32" height="32" viewBox="0 0 32 32" fill="none" xmlns="http://www.w3.org/2000/svg">
  <circle cx="16" cy="16" r="16" fill="white"/>
  <g transform="translate(7, 6) scale(0.085)">
    <path d="M43.9767 5.81418C44.7712 2.40898 47.807 0 51.3037 0H141.185C146.031 0 149.613 4.51423 148.512 9.23344L125.69 107.043C124.895 110.448 121.86 112.857 118.363 112.857H28.4815C23.6355 112.857 20.0533 108.343 21.1545 103.624L43.9767 5.81418Z" fill="black"/>
    <path d="M85.1681 137.957C85.9626 134.552 88.9984 132.143 92.4951 132.143H182.377C187.223 132.143 190.805 136.657 189.704 141.376L166.881 239.186C166.087 242.591 163.051 245 159.554 245H69.6729C64.8269 245 61.2447 240.485 62.3459 235.766L85.1681 137.957Z" fill="black"/>
    <path d="M146.242 54.6245C147.072 51.2653 150.086 48.9053 153.547 48.9053H201.247C206.133 48.9053 209.723 53.4901 208.551 58.2336L196.468 107.138C195.639 110.498 192.624 112.858 189.164 112.858H141.464C136.578 112.858 132.988 108.273 134.16 103.529L146.242 54.6245Z" fill="black"/>
    <path d="M14.387 137.862C15.2169 134.503 18.231 132.143 21.6912 132.143H69.3911C74.2773 132.143 77.8673 136.727 76.6953 141.471L64.613 190.376C63.7831 193.735 60.769 196.095 57.3088 196.095H9.60886C4.72269 196.095 1.13272 191.51 2.30466 186.767L14.387 137.862Z" fill="black"/>
  </g>
</svg>
